<svg xmlns="http://www.w3.org/2000/svg" viewBox="0 0 800 920" role="img" aria-label="Anusree Ranusree portrait">
  <defs><linearGradient id="b" x1="0" x2="1" y1="0" y2="1"><stop stop-color="#180202"/><stop offset=".45" stop-color="#991b1b"/><stop offset="1" stop-color="#050505"/></linearGradient></defs>
  <rect width="800" height="920" fill="url(#b)"/><circle cx="575" cy="155" r="270" fill="#fff" opacity=".11"/><path d="M108 828c35-191 144-302 292-302s257 111 292 302v92H108z" fill="#050505"/><circle cx="400" cy="358" r="156" fill="#080808"/><path d="M230 402c4-162 76-259 170-259s166 97 170 259c-83-55-248-55-340 0z" fill="#1c1c1c"/><path d="M258 604c50 64 234 64 284 0l31 316H227z" fill="#b91c1c"/><path d="M306 427c56 45 132 45 188 0" stroke="#fecaca" stroke-width="10" stroke-linecap="round" fill="none"/></svg>
