<svg xmlns="http://www.w3.org/2000/svg" viewBox="0 0 800 920" role="img" aria-label="Arvind portrait">
  <defs><linearGradient id="b" x1="0" x2="1" y1="1" y2="0"><stop stop-color="#050505"/><stop offset=".55" stop-color="#4c0519"/><stop offset="1" stop-color="#fff"/></linearGradient></defs>
  <rect width="800" height="920" fill="url(#b)"/><rect x="80" y="100" width="640" height="640" rx="72" fill="#fff" opacity=".08"/><path d="M103 820c38-190 146-294 297-294s259 104 297 294v100H103z" fill="#050505"/><circle cx="400" cy="356" r="152" fill="#080808"/><path d="M245 337c31-128 132-189 239-135 45 23 72 67 78 135-106-34-209-31-317 0z" fill="#262626"/><path d="M270 600l130 95 130-95v320H270z" fill="#f5f5f5"/><path d="M306 422c52 42 137 42 188 0" stroke="#ef4444" stroke-width="11" stroke-linecap="round" fill="none"/></svg>
