<svg xmlns="http://www.w3.org/2000/svg" viewBox="0 0 800 920" role="img" aria-label="Avaneesh R portrait">
  <defs><linearGradient id="b" x1="1" x2="0" y1="0" y2="1"><stop stop-color="#ef4444"/><stop offset=".42" stop-color="#171717"/><stop offset="1" stop-color="#050505"/></linearGradient></defs>
  <rect width="800" height="920" fill="url(#b)"/><circle cx="240" cy="170" r="260" fill="#fff" opacity=".12"/><path d="M118 826c34-184 140-291 282-291s248 107 282 291v94H118z" fill="#050505"/><circle cx="400" cy="365" r="150" fill="#080808"/><path d="M263 350c24-118 97-171 187-144 65 20 102 72 105 144-102-27-196-24-292 0z" fill="#2a2a2a"/><rect x="284" y="585" width="232" height="88" rx="44" fill="#dc2626"/><rect x="334" y="692" width="132" height="228" fill="#111"/><path d="M288 423c51 48 171 48 224 0" stroke="#fca5a5" stroke-width="10" stroke-linecap="round" fill="none"/></svg>
