<svg xmlns="http://www.w3.org/2000/svg" viewBox="0 0 1200 1000" role="img" aria-label="Team culture collage">
  <defs>
    <linearGradient id="bg" x1="0" y1="0" x2="1" y2="1">
      <stop stop-color="#0a0a0a"/>
      <stop offset=".48" stop-color="#2a0505"/>
      <stop offset="1" stop-color="#991b1b"/>
    </linearGradient>
    <radialGradient id="glow" cx="50%" cy="28%" r="58%">
      <stop stop-color="#ef4444" stop-opacity=".75"/>
      <stop offset="1" stop-color="#ef4444" stop-opacity="0"/>
    </radialGradient>
  </defs>
  <rect width="1200" height="1000" fill="url(#bg)"/>
  <circle cx="780" cy="230" r="360" fill="url(#glow)"/>
  <g opacity=".88">
    <rect x="82" y="90" width="430" height="330" rx="34" fill="#fff" fill-opacity=".08" stroke="#fff" stroke-opacity=".14"/>
    <rect x="560" y="130" width="560" height="260" rx="34" fill="#fff" fill-opacity=".08" stroke="#fff" stroke-opacity=".14"/>
    <rect x="160" y="475" width="470" height="330" rx="34" fill="#fff" fill-opacity=".08" stroke="#fff" stroke-opacity=".14"/>
    <rect x="690" y="455" width="360" height="420" rx="34" fill="#fff" fill-opacity=".08" stroke="#fff" stroke-opacity=".14"/>
  </g>
  <g fill="#050505">
    <circle cx="262" cy="238" r="72"/><path d="M132 392c16-91 65-139 130-139s114 48 130 139z"/>
    <circle cx="392" cy="248" r="64"/><path d="M285 392c13-77 53-119 107-119s94 42 107 119z"/>
    <circle cx="720" cy="252" r="62"/><path d="M612 374c14-78 54-119 108-119s94 41 108 119z"/>
    <circle cx="870" cy="242" r="72"/><path d="M740 374c17-91 66-139 130-139s114 48 131 139z"/>
    <circle cx="385" cy="635" r="95"/><path d="M218 794c22-119 85-183 167-183s146 64 167 183z"/>
    <circle cx="870" cy="645" r="96"/><path d="M705 848c20-120 83-185 165-185s145 65 166 185z"/>
  </g>
  <g fill="none" stroke="#ef4444" stroke-width="4" stroke-opacity=".75">
    <path d="M512 253h54M630 625h58M505 424l148 92M652 391l-86 98"/>
  </g>
</svg>
