<svg xmlns="http://www.w3.org/2000/svg" viewBox="0 0 800 920" role="img" aria-label="Dev Dharrshan S portrait">
  <defs><linearGradient id="b" x1="0" x2="1" y1="0" y2="1"><stop stop-color="#090909"/><stop offset=".55" stop-color="#3a0505"/><stop offset="1" stop-color="#dc2626"/></linearGradient><radialGradient id="r" cx="52%" cy="20%" r="58%"><stop stop-color="#fff" stop-opacity=".32"/><stop offset="1" stop-color="#fff" stop-opacity="0"/></radialGradient></defs>
  <rect width="800" height="920" fill="url(#b)"/><circle cx="520" cy="170" r="320" fill="url(#r)"/><path d="M110 820c36-188 144-296 290-296s254 108 290 296v100H110z" fill="#050505"/><circle cx="400" cy="360" r="155" fill="#090909"/><path d="M260 337c42-126 100-177 178-154 75 22 117 80 123 154-91-18-180-20-301 0z" fill="#1f1f1f"/><path d="M299 414c48 54 151 54 202 0" fill="none" stroke="#ef4444" stroke-width="12" stroke-linecap="round"/><path d="M244 796h312l-52 124H296z" fill="#b91c1c"/><path d="M165 704h470" stroke="#fff" stroke-opacity=".22" stroke-width="3"/></svg>
