<svg xmlns="http://www.w3.org/2000/svg" viewBox="0 0 800 920" role="img" aria-label="Divya Dharshini S portrait">
  <defs><linearGradient id="b" x1="0" x2="1" y1="0" y2="1"><stop stop-color="#050505"/><stop offset=".4" stop-color="#7f1d1d"/><stop offset="1" stop-color="#ef4444"/></linearGradient></defs>
  <rect width="800" height="920" fill="url(#b)"/><circle cx="206" cy="164" r="244" fill="#fff" opacity=".1"/><path d="M100 830c38-190 148-300 300-300s262 110 300 300v90H100z" fill="#050505"/><circle cx="400" cy="362" r="154" fill="#080808"/><path d="M226 400c12-160 79-254 174-254s162 94 174 254c-96-62-252-62-348 0z" fill="#202020"/><path d="M260 615h280l-34 305H294z" fill="#dc2626"/><path d="M304 425c57 44 135 44 192 0" stroke="#fee2e2" stroke-width="10" stroke-linecap="round" fill="none"/><path d="M598 190h92v92h-92z" fill="#fff" opacity=".14"/></svg>
