<svg xmlns="http://www.w3.org/2000/svg" viewBox="0 0 1200 1100" role="img" aria-label="Premium agency team group portrait">
  <defs>
    <linearGradient id="bg" x1="0" y1="0" x2="1" y2="1">
      <stop stop-color="#110202"/>
      <stop offset=".45" stop-color="#641010"/>
      <stop offset="1" stop-color="#060606"/>
    </linearGradient>
    <linearGradient id="card" x1="0" y1="0" x2="1" y2="1">
      <stop stop-color="#0a0a0a"/>
      <stop offset=".55" stop-color="#7f1111"/>
      <stop offset="1" stop-color="#ef4444"/>
    </linearGradient>
    <linearGradient id="card2" x1="1" y1="0" x2="0" y2="1">
      <stop stop-color="#f7f7f7"/>
      <stop offset=".34" stop-color="#991b1b"/>
      <stop offset="1" stop-color="#060606"/>
    </linearGradient>
    <radialGradient id="glow" cx="50%" cy="20%" r="68%">
      <stop stop-color="#ef4444" stop-opacity=".62"/>
      <stop offset="1" stop-color="#ef4444" stop-opacity="0"/>
    </radialGradient>
    <filter id="soft" x="-20%" y="-20%" width="140%" height="140%">
      <feGaussianBlur stdDeviation="18"/>
    </filter>
  </defs>
  <rect width="1200" height="1100" fill="url(#bg)"/>
  <circle cx="770" cy="170" r="470" fill="url(#glow)"/>
  <circle cx="94" cy="72" r="34" fill="none" stroke="#fff" stroke-opacity=".17" stroke-width="4"/>
  <circle cx="505" cy="318" r="22" fill="#ef4444" opacity=".55"/>
  <rect x="1005" y="334" width="42" height="42" fill="#fff" opacity=".13"/>
  <path d="M82 1016c180-116 850-113 1035 0" stroke="#ef4444" stroke-opacity=".23" stroke-width="28" filter="url(#soft)"/>

  <g transform="translate(78 72)">
    <rect width="1044" height="956" rx="52" fill="#fff" fill-opacity=".08" stroke="#fff" stroke-opacity=".16"/>
    <g transform="translate(30 30)">
      <g>
        <rect width="300" height="410" rx="28" fill="url(#card)" stroke="#fff" stroke-opacity=".12"/>
        <circle cx="150" cy="160" r="76" fill="#181818"/>
        <path d="M68 390c19-101 79-164 164-164s145 63 164 164z" fill="#010101"/>
        <path d="M84 216c18-102 79-154 163-130 61 18 99 66 107 130-90-26-179-27-270 0z" fill="#252525"/>
        <path d="M105 263c39 40 101 40 141 0" fill="none" stroke="#ff4b4b" stroke-width="8" stroke-linecap="round"/>
        <path d="M101 333h98l46 74H145z" fill="#d71920"/>
      </g>
      <g transform="translate(370 22)">
        <rect width="300" height="410" rx="28" fill="url(#card2)" stroke="#fff" stroke-opacity=".12"/>
        <circle cx="150" cy="160" r="76" fill="#181818"/>
        <path d="M68 390c19-101 79-164 164-164s145 63 164 164z" fill="#010101"/>
        <path d="M58 170c8-120 70-185 156-185s148 65 156 185c-94-44-221-44-312 0z" fill="#2b2b2b"/>
        <path d="M107 268c39 34 100 34 139 0" fill="none" stroke="#fca5a5" stroke-width="8" stroke-linecap="round"/>
        <rect x="102" y="302" width="96" height="42" rx="21" fill="#ef2929"/>
      </g>
      <g transform="translate(740 0)">
        <rect width="300" height="410" rx="28" fill="url(#card2)" stroke="#fff" stroke-opacity=".12"/>
        <circle cx="150" cy="160" r="76" fill="#181818"/>
        <path d="M68 390c19-101 79-164 164-164s145 63 164 164z" fill="#010101"/>
        <path d="M72 207c25-113 95-158 178-122 50 22 78 66 85 122-87-27-174-27-263 0z" fill="#252525"/>
        <path d="M102 264c41 39 106 39 148 0" fill="none" stroke="#ff4b4b" stroke-width="8" stroke-linecap="round"/>
        <path d="M95 298l75 62 75-62v111H95z" fill="#f5f5f5"/>
      </g>
      <g transform="translate(0 455)">
        <rect width="300" height="410" rx="28" fill="url(#card)" stroke="#fff" stroke-opacity=".12"/>
        <circle cx="150" cy="160" r="76" fill="#181818"/>
        <path d="M68 390c19-101 79-164 164-164s145 63 164 164z" fill="#010101"/>
        <path d="M62 218c10-121 68-188 154-188s144 67 154 188c-89-65-219-65-308 0z" fill="#202020"/>
        <path d="M103 268c39 34 101 34 140 0" fill="none" stroke="#fbcaca" stroke-width="8" stroke-linecap="round"/>
        <path d="M90 312h120l34 111H80z" fill="#c9151c"/>
      </g>
      <g transform="translate(370 455)">
        <rect width="300" height="410" rx="28" fill="url(#card)" stroke="#fff" stroke-opacity=".12"/>
        <circle cx="150" cy="160" r="76" fill="#181818"/>
        <path d="M68 390c19-101 79-164 164-164s145 63 164 164z" fill="#010101"/>
        <path d="M58 218c11-123 70-190 156-190s145 67 156 190c-92-66-220-66-312 0z" fill="#202020"/>
        <path d="M106 268c39 36 101 36 140 0" fill="none" stroke="#ff4b4b" stroke-width="8" stroke-linecap="round"/>
        <path d="M100 316h160l-42 110h-76z" fill="#f8f8f8"/>
        <circle cx="66" cy="74" r="24" fill="#ef4444" opacity=".65"/>
      </g>
      <g transform="translate(740 455)">
        <rect width="300" height="410" rx="28" fill="url(#card)" stroke="#fff" stroke-opacity=".12"/>
        <circle cx="150" cy="160" r="76" fill="#181818"/>
        <path d="M68 390c19-101 79-164 164-164s145 63 164 164z" fill="#010101"/>
        <path d="M58 218c11-123 70-190 156-190s145 67 156 190c-92-66-220-66-312 0z" fill="#202020"/>
        <path d="M106 268c39 36 101 36 140 0" fill="none" stroke="#fbcaca" stroke-width="8" stroke-linecap="round"/>
        <path d="M108 314h104l17 112H91z" fill="#ef2929"/>
        <rect x="229" y="72" width="42" height="42" fill="#fff" opacity=".16"/>
      </g>
    </g>
  </g>
</svg>
